<svg width="50" height="50" fill="none" xmlns="http://www.w3.org/2000/svg"><path d="M24.907 45l-11.7-3.213L10.6 12.861h28.65l-2.61 28.922L24.906 45z" fill="#264DE4"/><path d="M34.405 39.941l2.23-24.715h-11.71v27.315l9.48-2.6z" fill="#2965F1"/><path d="M16.577 25.954l.322 3.548h8.026v-3.547h-8.348zm-.646-7.18l.326 3.548h8.668v-3.548h-8.993zm8.994 16.394l-.016.004-3.994-1.066-.256-2.83H17.06l.502 5.57 7.347 2.018.017-.005v-3.69z" fill="#EBEBEB"/><path d="M17.343 5h4.343v1.797H19.16v1.797h2.527v1.797h-4.343V5zm5.212 0H26.9v1.563h-2.527v.312H26.9v3.594h-4.344v-1.64h2.528v-.313h-2.528V5zm5.213 0h4.344v1.563h-2.527v.312h2.527v3.594h-4.344v-1.64h2.528v-.313h-2.528V5z" fill="#F5F9FF"/><path d="M33.25 25.955l.647-7.181h-8.985v3.548h5.054l-.326 3.633h-4.728v3.547h4.417l-.416 4.601-4 1.068v3.691l7.352-2.016.054-.599.843-9.34.087-.952z" fill="#fff"/></svg>