<svg width="50" height="50" fill="none" xmlns="http://www.w3.org/2000/svg"><path d="M14.024 12.703h22.608l-2.773 24.542-.504 1.037-6.836 3.5-9.283-3.334-.635-1.203-2.577-24.542z" fill="#F5F9FF"/><path d="M31.58 48.493l.485-7.994 1.34-2.261s-3.05 1.233-8.158 1.233-8.113-1.21-8.113-1.21l1.502 2.466.532 7.766c0 .832 2.778 1.507 6.206 1.507 3.427 0 6.206-.675 6.206-1.507zm-1.532-37.329l1.02-3.98 5.642-5.867L35.223.065l-5.974 6.25-1.184 4.755a80.17 80.17 0 00-2.672-.044c-6.292 0-11.393.709-11.393 1.583s5.1 1.582 11.393 1.582c6.292 0 11.393-.708 11.393-1.582 0-.644-2.767-1.198-6.738-1.445" fill="#D34A47"/><path d="M29.455 13.393s-.22.049-.87.051c-.649.003-1.11-.004-1.294-.169a.285.285 0 01-.076-.192c0-.114.082-.18.186-.223l.099.153c-.043.014-.068.032-.068.05 0 .086.664.145 1.172.14.509-.007 1.123-.048 1.123-.133 0-.026-.046-.05-.127-.07l.098-.15c.132.04.247.118.246.253-.001.23-.297.264-.489.29" fill="#fff"/><path d="M36.7 1.328c.141-.162-.074-.576-.482-.925-.408-.349-.853-.5-.995-.338-.142.162.073.576.481.925.407.349.853.5.995.338zm-5.392 27.64c-.134-1.272 2.815-3.113 2.058-3.172-1.629.092-2.44 1.886-3.26 3.765-.3.689-1.327 3.625-2.001 3.264-.674-.362.873-2.776 1.307-4.21-.5.362-2.335 1.771-2.808.452-.76.638-2.386.983-2.202-.693-.405.708-1.313 1.697-2.403 1.286-1.43-.54.83-5.044 1.392-4.817.562.227-.114 1.253-.29 1.652-.39.877-.84 1.98-.539 2.205.514.387 1.915-1.462 1.946-1.503.262-.342 1.008-2.578 1.609-2.322.601.257-1.5 3.21-.714 3.796.158.118.806-.073 1.2-.495.256-.272.168-.876 1.018-2.88s1.609-4.5 2.192-4.31c.584.19.103 1.471-.107 1.948-.981 2.242-2.68 5.944-1.879 5.664.801-.28 1.218-.297 2.002-1.203.784-.907.748-2.4 1.27-2.369.524.032.436.51.31.875.513-.581 2.437-1.806 2.902-.593.55 1.436-2.753 3.511-1.93 3.405.804-.103 2.104-.917 2.66-1.657l1.528-13.58s-1.538 1.258-11.324 1.258-11.166-1.232-11.166-1.232l1.302 12.396c.69-1.94 2.331-5.864 4.917-5.733 1.176.06 2.746 2.298 1.401 2.374-.57.032-.627-1.117-1.301-1.286-.486-.122-1.164.27-1.602.692-.872.845-2.75 4.175-2.502 5.836.316 2.117 2.956-.736 3.403-1.583.315-.596.527-2.364 1.216-2.178.688.185-.06 2.01-.56 3.622-.56 1.81-.854 3.721-1.557 3.501-.702-.22.442-2.557.4-2.967-.66.602-1.876 2.126-3.432 1.372l.809 7.697s2.148 1.677 8.619 1.677 8.699-1.65 8.699-1.65l1.003-8.916c-.82.79-3.42 2.193-3.586.612z" fill="#D34A47"/></svg>