<svg width="50" height="50" fill="none" xmlns="http://www.w3.org/2000/svg"><path d="M39.25 12.861l-2.61 28.922L24.906 45l-11.7-3.213L10.6 12.861h28.65z" fill="#E44D26"/><path d="M24.926 42.54l9.48-2.599 2.23-24.715h-11.71v27.315z" fill="#F16529"/><path d="M19.852 22.322h5.074v-3.548h-8.994l.086.952.881 9.776h8.027v-3.547H20.18l-.328-3.633zm.808 8.954h-3.6l.502 5.57 7.347 2.018.017-.005v-3.69l-.016.003-3.994-1.066-.256-2.83z" fill="#EBEBEB"/><path d="M13.266 5h1.823v1.781h1.667V5h1.823v5.394h-1.823V8.588H15.09v1.806h-1.823V5zm7.71 1.789h-1.604V5h5.032v1.789H22.8v3.605h-1.823V6.79zM25.203 5h1.9l1.17 1.895L29.44 5h1.9v5.394h-1.814V7.72l-1.254 1.918h-.032L26.986 7.72v2.674h-1.783V5zm7.046 0h1.823v3.611h2.563v1.783H32.25V5z" fill="#F5F9FF"/><path d="M24.913 29.502h4.417l-.417 4.601-4 1.068v3.691l7.353-2.016.054-.599.843-9.34.087-.953h-8.336v3.548zm0-7.189v.009h8.664l.072-.798.163-1.798.086-.952h-8.985v3.539z" fill="#fff"/></svg>