<svg width="50" height="50" fill="none" xmlns="http://www.w3.org/2000/svg"><path d="M19.988 29.694l.06.03.108.051c.137.065.275.13.415.192l.088.04c.16.07.321.136.484.2l.119.047c.15.059.303.116.457.17l.057.02c.169.058.339.113.51.166l.124.037c.174.053.346.116.526.149 11.423 2.083 14.741-6.865 14.741-6.865-2.787 3.63-7.733 4.589-12.42 3.522-.178-.04-.35-.095-.523-.146l-.13-.04a16.086 16.086 0 01-.504-.163l-.07-.026a16.8 16.8 0 01-.444-.164l-.124-.049c-.161-.063-.321-.13-.48-.2l-.095-.042a18.9 18.9 0 01-.404-.188l-.118-.056c-.105-.052-.209-.106-.313-.16l-.208-.109a12.426 12.426 0 01-.375-.21l-.127-.07a18.42 18.42 0 01-.488-.3l-.131-.088a12.995 12.995 0 01-.348-.23l-.112-.08c-.11-.078-.22-.157-.328-.237l-.146-.11c-.1-.076-.198-.153-.296-.232l-.132-.106a19.517 19.517 0 01-.37-.31l-.04-.035a15.358 15.358 0 01-.389-.352l-.11-.105c-.094-.09-.187-.18-.278-.273l-.11-.11c-.116-.119-.23-.24-.342-.362l-.017-.018c-.118-.13-.234-.261-.347-.395l-.09-.108a13.737 13.737 0 01-.25-.309l-.092-.113a16.506 16.506 0 01-.288-.384c-2.602-3.55-3.537-8.445-1.458-12.465l-1.843 2.338c-2.362 3.394-2.068 7.811-.264 11.419l.132.256.085.163.053.093.094.169c.056.098.113.197.171.295l.099.162c.065.105.131.209.2.312l.085.132c.094.14.19.28.29.418l.008.01.048.067c.086.118.175.235.264.35l.1.127c.08.1.16.2.243.3l.093.11c.111.131.224.261.34.389l.007.007.013.014c.113.123.228.243.345.364l.11.111c.091.092.183.181.276.27l.113.108c.124.117.25.232.378.344l.006.005.066.056c.112.097.227.195.343.29l.142.113c.095.076.19.15.286.224l.153.116c.107.078.213.155.321.23l.117.084.033.022c.102.07.207.138.311.206l.135.09c.16.102.324.202.488.299l.136.076c.12.07.242.138.366.205l.202.105.263.137zm1.154-11.499c.256.367.54.803.879 1.099.123.135.252.267.383.397l.101.1c.128.123.258.245.392.363l.016.014.003.004c.149.13.302.255.458.378l.104.082c.156.12.315.237.478.349l.014.01.218.144.104.069c.117.074.234.147.355.217l.05.029c.103.06.208.118.313.175l.111.058.22.114.033.015c.15.074.303.145.457.213l.102.042c.123.052.248.104.374.152l.16.058c.115.043.23.082.345.12l.156.05c.165.051.327.116.498.144 8.82 1.461 10.855-5.33 10.855-5.33-1.835 2.644-5.39 3.905-9.183 2.92a10.574 10.574 0 01-.499-.144l-.15-.048a9.72 9.72 0 01-.35-.12l-.157-.06a12.303 12.303 0 01-.376-.15l-.102-.044a10.68 10.68 0 01-.46-.214l-.23-.117-.134-.069a10.98 10.98 0 01-.292-.165l-.07-.04a8.52 8.52 0 01-.353-.215l-.107-.071-.228-.151c-.163-.113-.321-.23-.477-.349l-.107-.085c-1.66-1.31-2.976-3.102-3.602-5.133-.656-2.107-.515-4.472.621-6.39l-1.395 1.97c-1.709 2.458-1.616 5.749-.283 8.348.223.436.474.859.755 1.261zm9.296-3.04l.219.075.096.031c.105.033.207.07.314.09 4.87.941 6.191-2.499 6.543-3.005-1.157 1.666-3.102 2.066-5.487 1.487a7.145 7.145 0 01-1.263-.463 7.084 7.084 0 01-1.202-.733c-2.135-1.62-3.462-4.71-2.068-7.227l-.754 1.039c-1.007 1.482-1.106 3.323-.407 4.959.737 1.737 2.247 3.1 4.009 3.746zm-4.7 19.937h-1.322a.174.174 0 00-.161.13l-.469 2.17-.469 2.168a.173.173 0 01-.16.13h-.936c-.924 0-.817-.64-.628-1.516l.006-.026.02-.11.004-.021.042-.225.046-.241.048-.246.213-1.04.213-1.042a.105.105 0 00-.106-.131h-1.356a.172.172 0 00-.16.13l-.292 1.383-.291 1.383v.002l-.027.128c-.336 1.533-.247 2.994 1.577 3.04l.053.001h2.864a.173.173 0 00.16-.13l.618-2.903.618-2.903c.015-.072-.032-.13-.106-.13zm-14.143-.015h-1.45a.176.176 0 00-.163.13l-.138.607-.137.607c-.016.071.03.13.104.13h1.461a.174.174 0 00.162-.13l.133-.607.133-.607c.015-.071-.032-.13-.105-.13zm-.421 1.889H9.712a.176.176 0 00-.162.13l-.206.909-.205.91-.057.26-.197.928-.197.928a2.803 2.803 0 01-.07.257s-.273.812-.732.803l-.058-.001-.397-.008a.175.175 0 00-.164.128l-.152.637-.151.637c-.017.071.03.13.102.131.26.003.843.01 1.196.01 1.147 0 1.751-.636 2.139-2.464l.453-2.098.425-1.968c.016-.07-.032-.13-.105-.13zm26.912-.492l-.061-.25-.06-.257-.03-.13c-.119-.46-.467-.727-1.224-.727h-1.178l-1.085-.002h-1.221a.173.173 0 00-.161.13l-.054.255-.064.301-.018.085-.55 2.575-.521 2.444a.57.57 0 00-.012.196c.009.036.15.065.223.065h1.1a.69.69 0 00.207-.03c.04-.015.1-.16.114-.231l.196-.969.196-.968v-.002l.026-.129.238-1.112.21-.983a.173.173 0 01.16-.13l3.465-.002c.074 0 .12-.058.104-.13zm4.46-2.263l-.266.001h-1.11a.282.282 0 00-.208.11l-2.453 3.594c-.04.06-.088.052-.104-.02l-.181-.791a.175.175 0 00-.163-.13h-1.577c-.073 0-.117.057-.096.127l.706 2.476c.02.07.022.186.003.257l-.307 1.198c-.019.071.026.13.1.13h1.558a.181.181 0 00.166-.13l.309-1.198a.787.787 0 01.113-.236l3.982-5.284c.044-.059.02-.107-.053-.106l-.419.002zm-12.526 3.1v-.001a.16.16 0 01-.156.137h-2c-.069 0-.104-.046-.093-.105l.002-.004h-.002l.001-.006.01-.034c.19-.508.579-.84 1.31-.84.823-.001.984.4.928.853zm-.587-2.307c-2.566 0-3.174 1.557-3.515 3.13-.341 1.602-.312 3.1 2.344 3.1h.421l.318-.002h.005c.702-.003 1.405-.008 1.69-.01a.173.173 0 00.159-.131l.107-.526.021-.102.128-.627a.105.105 0 00-.106-.13h-2.387c-.95 0-1.232-.253-1.128-.994h3.818a.16.16 0 00.14-.099l.008-.033c.567-2.137.404-3.576-2.023-3.576zm-12.128 2.299l-.036.128-.288 1.021-.289 1.021a.186.186 0 01-.17.129h-1.524c-1.157 0-1.439-.905-1.157-2.24.282-1.365.834-2.213 1.972-2.3 1.557-.117 1.868.978 1.492 2.24zm1.046 2.22s.72-1.746.882-2.754c.223-1.35-.453-3.308-3.063-3.308-2.596 0-3.724 1.869-4.154 3.901-.43 2.047.134 3.842 2.715 3.827l2.036-.007 1.903-.007a.184.184 0 00.167-.13l.331-1.264c.019-.071-.026-.13-.1-.13l-.317-.002-.318-.002c-.062 0-.098-.04-.09-.094l.008-.03zm12.85-1.169a.088.088 0 11-.175 0 .088.088 0 01.175 0z" fill="#0868AC"/></svg>