<svg width="50" height="50" fill="none" xmlns="http://www.w3.org/2000/svg"><path d="M25 45c11.046 0 20-8.954 20-20S36.046 5 25 5 5 13.954 5 25s8.954 20 20 20z" fill="#F0DB4F"/><path d="M18.76 17.24h3.48v9.8c0 4.4-2.12 5.96-5.48 5.96-.84 0-1.88-.12-2.56-.36l.4-2.84c.48.16 1.12.28 1.8.28 1.48 0 2.4-.68 2.4-3.04l-.04-9.8zm6.56 11.92c.92.48 2.4.96 3.88.96 1.6 0 2.44-.68 2.44-1.72 0-.96-.72-1.52-2.6-2.16-2.56-.92-4.28-2.36-4.28-4.64 0-2.6 2.24-4.6 5.88-4.6 1.76 0 3.04.36 3.96.8l-.8 2.8c-.6-.28-1.72-.72-3.2-.72-1.52 0-2.24.72-2.24 1.48 0 1 .84 1.44 2.88 2.2 2.72 1 4 2.44 4 4.64 0 2.6-1.96 4.8-6.24 4.8-1.76 0-3.52-.48-4.4-.96l.72-2.88z" fill="#323330"/></svg>