<svg width="50" height="50" fill="none" xmlns="http://www.w3.org/2000/svg"><path d="M.703 25.484c0 7.059 10.878 12.781 24.297 12.781s24.297-5.722 24.297-12.78c0-7.06-10.878-12.782-24.297-12.782S.703 18.426.703 25.484z" fill="url(#paint0_radial)"/><path d="M25 37.316c12.894 0 23.348-5.297 23.348-11.832 0-6.535-10.454-11.832-23.348-11.832-12.895 0-23.348 5.298-23.348 11.832 0 6.535 10.454 11.832 23.348 11.832z" fill="#777BB3"/><path d="M13.904 26.951c1.06 0 1.852-.195 2.352-.58.496-.382.838-1.043 1.017-1.965.168-.862.104-1.464-.189-1.788-.3-.332-.947-.5-1.924-.5h-1.694l-.94 4.833h1.378zm-5.542 5.954a.263.263 0 01-.259-.314l2.49-12.808a.264.264 0 01.258-.214h5.366c1.686 0 2.941.458 3.73 1.361.793.908 1.038 2.177.728 3.772a6.022 6.022 0 01-.645 1.794 6.007 6.007 0 01-1.188 1.488 5.208 5.208 0 01-1.954 1.17c-.703.23-1.606.346-2.684.346H12.03l-.62 3.192a.264.264 0 01-.259.213h-2.79z" fill="#000"/><path d="M13.683 22.381h1.477c1.18 0 1.59.26 1.729.413.23.256.274.796.126 1.562-.167.857-.476 1.464-.92 1.805-.453.35-1.19.526-2.191.526h-1.058l.837-4.306zm2.534-3.075H10.85a.527.527 0 00-.517.426l-2.49 12.809a.527.527 0 00.518.628h2.79c.253 0 .47-.18.518-.427l.579-2.979h1.955c1.105 0 2.036-.12 2.766-.358a5.473 5.473 0 002.053-1.229 6.273 6.273 0 001.237-1.552 6.285 6.285 0 00.674-1.872c.326-1.678.061-3.023-.789-3.995-.84-.963-2.162-1.451-3.928-1.451zm-4.01 7.909h1.697c1.125 0 1.963-.212 2.513-.636.55-.424.922-1.131 1.115-2.123.185-.952.1-1.623-.252-2.015-.353-.391-1.06-.587-2.12-.587h-1.912l-1.041 5.36zm4.01-7.382c1.614 0 2.791.423 3.532 1.27.74.848.962 2.03.667 3.549a5.732 5.732 0 01-.616 1.715 5.72 5.72 0 01-1.136 1.422 4.928 4.928 0 01-1.857 1.115c-.681.221-1.549.332-2.603.332h-2.39l-.662 3.405h-2.79l2.49-12.808h5.365" fill="#fff"/><path d="M27.072 29.5a.263.263 0 01-.258-.314l1.1-5.668c.106-.538.08-.925-.072-1.089-.093-.1-.371-.267-1.196-.267h-1.995l-1.384 7.124a.264.264 0 01-.259.214H20.24a.264.264 0 01-.259-.314l2.49-12.809a.264.264 0 01.258-.213h2.768a.264.264 0 01.26.314l-.602 3.091h2.147c1.635 0 2.743.289 3.39.882.657.604.863 1.572.61 2.875l-1.159 5.96a.264.264 0 01-.258.214h-2.813z" fill="#000"/><path d="M25.497 15.9H22.73a.527.527 0 00-.517.427l-2.49 12.808a.527.527 0 00.518.628h2.768c.252 0 .47-.179.518-.427l1.343-6.91h1.777c.823 0 .996.175 1.003.183.05.053.115.302.007.86l-1.101 5.666a.527.527 0 00.517.628h2.813a.527.527 0 00.517-.427l1.158-5.96c.272-1.399.04-2.449-.69-3.12-.697-.64-1.864-.95-3.568-.95h-1.827l.54-2.778a.527.527 0 00-.518-.628zm0 .527l-.661 3.406h2.466c1.551 0 2.622.27 3.21.812.59.541.766 1.418.53 2.63l-1.158 5.96h-2.812l1.102-5.666c.125-.645.079-1.085-.139-1.32-.217-.234-.68-.351-1.389-.351h-2.212l-1.426 7.338H20.24l2.49-12.809h2.767z" fill="#fff"/><path d="M35.682 26.951c1.06 0 1.851-.195 2.352-.58.496-.382.838-1.043 1.017-1.965.168-.862.104-1.464-.189-1.788-.3-.332-.947-.5-1.924-.5h-1.694l-.94 4.833h1.378zm-5.542 5.954a.263.263 0 01-.259-.314l2.49-12.808a.264.264 0 01.258-.214h5.366c1.686 0 2.941.458 3.73 1.361.793.908 1.038 2.177.728 3.772a6.028 6.028 0 01-.645 1.794 6.007 6.007 0 01-1.188 1.488 5.208 5.208 0 01-1.954 1.17c-.703.23-1.606.346-2.684.346h-2.173l-.62 3.192a.264.264 0 01-.259.213h-2.79z" fill="#000"/><path d="M35.461 22.381h1.477c1.18 0 1.59.26 1.728.413.232.256.275.796.127 1.562-.167.857-.477 1.464-.92 1.805-.453.35-1.19.526-2.191.526h-1.058l.837-4.306zm2.534-3.075h-5.366a.527.527 0 00-.517.426l-2.49 12.809a.528.528 0 00.518.628h2.79c.252 0 .47-.18.518-.427l.578-2.979h1.956c1.105 0 2.036-.12 2.766-.358a5.474 5.474 0 002.053-1.23 6.267 6.267 0 001.237-1.55 6.282 6.282 0 00.674-1.873c.326-1.679.06-3.023-.789-3.995-.84-.963-2.163-1.451-3.928-1.451zm-4.01 7.909h1.697c1.125 0 1.963-.212 2.513-.636.55-.424.922-1.131 1.115-2.123.185-.952.1-1.623-.252-2.015-.353-.391-1.06-.587-2.12-.587h-1.912l-1.041 5.36zm4.01-7.382c1.614 0 2.791.423 3.531 1.27.74.848.963 2.03.668 3.549a5.732 5.732 0 01-.617 1.715c-.29.518-.667.993-1.135 1.422a4.927 4.927 0 01-1.857 1.115c-.681.221-1.549.332-2.603.332h-2.39l-.662 3.405h-2.79l2.49-12.808h5.365" fill="#fff"/><defs><radialGradient id="paint0_radial" cx="0" cy="0" r="1" gradientUnits="userSpaceOnUse" gradientTransform="translate(15.291 17.197) scale(31.9053)"><stop stop-color="#AEB2D5"/><stop offset=".3" stop-color="#AEB2D5"/><stop offset=".75" stop-color="#484C89"/><stop offset="1" stop-color="#484C89"/></radialGradient></defs></svg>