<svg width="50" height="50" fill="none" xmlns="http://www.w3.org/2000/svg"><path d="M20.491 23.882c0-1.59-.453-2.406-1.36-2.45a2.556 2.556 0 00-1.056.172c-.274.098-.458.195-.555.293v3.796c.58.364 1.096.533 1.545.507.95-.063 1.426-.835 1.426-2.318zm1.119.066c0 .808-.19 1.479-.57 2.012-.425.604-1.014.914-1.767.932-.567.018-1.151-.16-1.753-.533v3.45l-.973-.347v-7.658c.16-.195.366-.364.614-.506.58-.338 1.283-.511 2.111-.52l.014.014c.757-.01 1.34.3 1.75.931.382.579.574 1.32.574 2.225zm5.946 2.264c0 1.084-.108 1.834-.326 2.252-.218.417-.633.75-1.246.998a4.774 4.774 0 01-1.612.32l-.16-.613c.586-.08.999-.16 1.238-.239.472-.16.796-.404.973-.732.143-.268.213-.777.213-1.532v-.253a5.003 5.003 0 01-2.091.452c-.48 0-.902-.15-1.266-.452-.408-.33-.613-.747-.613-1.252v-4.05l.973-.333v4.076c0 .435.14.77.422 1.006.28.235.645.348 1.09.34.447-.01.924-.183 1.432-.52v-4.755h.973v5.287zm3.798.626a4.01 4.01 0 01-.32.014c-.55 0-.98-.13-1.286-.394-.306-.263-.459-.626-.459-1.089v-3.832h-.666v-.612h.666V19.3l.972-.347v1.972h1.093v.612H30.26v3.806c0 .365.098.623.294.774.168.125.435.196.799.214v.507zm5.891-.079h-.973v-3.756c0-.382-.09-.71-.267-.986a.973.973 0 00-.857-.466c-.446 0-1.004.236-1.673.706v4.502h-.973v-8.977l.973-.306v4.088a3.39 3.39 0 012.038-.678c.515 0 .932.173 1.252.519.32.346.48.777.48 1.292v4.062zm5.171-3.029c0-.612-.116-1.116-.346-1.516-.276-.486-.702-.743-1.279-.77-1.067.062-1.6.826-1.6 2.291 0 .672.112 1.233.335 1.683.285.574.713.857 1.284.847 1.07-.008 1.606-.853 1.606-2.536zm1.066.006c0 .87-.223 1.593-.667 2.171-.488.647-1.163.972-2.024.972-.854 0-1.52-.325-2-.972-.435-.578-.652-1.302-.652-2.171 0-.818.235-1.506.706-2.066.497-.594 1.15-.891 1.959-.891.807 0 1.465.298 1.972.891.47.56.706 1.248.706 2.066zm5.578 3.023h-.973V22.79c0-.435-.131-.775-.393-1.02-.262-.243-.611-.362-1.047-.352-.462.009-.901.16-1.319.453v4.888h-.973V21.75c.56-.407 1.076-.674 1.546-.798a4.714 4.714 0 011.173-.173c.231 0 .448.022.653.067.382.088.693.252.932.492.267.267.4.586.4.96v4.46z" fill="#EFEFEF"/><path d="M6.938 17.817c-.5.003-.979.046-1.4.12-1.239.22-1.464.677-1.464 1.522v1.116h2.928v.372H2.975c-.85 0-1.596.512-1.829 1.484-.269 1.116-.28 1.812 0 2.976.208.867.705 1.485 1.556 1.485H3.71v-1.337c0-.967.836-1.82 1.83-1.82h2.924c.814 0 1.464-.67 1.464-1.487v-2.789c0-.793-.67-1.39-1.464-1.522a9.194 9.194 0 00-1.525-.12zm-1.584.898c.303 0 .55.251.55.56a.554.554 0 01-.55.557.553.553 0 01-.549-.557c0-.309.246-.56.55-.56z" fill="url(#paint0_linear)"/><path d="M10.293 20.947v1.3c0 1.009-.855 1.857-1.83 1.857H5.538c-.8 0-1.464.686-1.464 1.488v2.789c0 .793.69 1.26 1.464 1.488.927.272 1.816.322 2.925 0 .737-.213 1.464-.643 1.464-1.488v-1.116H7.002v-.372h4.39c.85 0 1.168-.594 1.464-1.485.305-.917.292-1.799 0-2.976-.21-.847-.612-1.484-1.465-1.484h-1.098zM8.647 28.01c.304 0 .55.248.55.556 0 .308-.246.56-.55.56a.555.555 0 01-.549-.56c0-.308.247-.556.55-.556z" fill="url(#paint1_linear)"/><path opacity=".444" d="M10.96 31.764c0 .42-1.757.76-3.924.76s-3.924-.34-3.924-.76 1.757-.761 3.924-.761 3.924.34 3.924.76z" fill="url(#paint2_radial)"/><defs><linearGradient id="paint0_linear" x1=".653" y1="18.166" x2="7.407" y2="23.926" gradientUnits="userSpaceOnUse"><stop stop-color="#5A9FD4"/><stop offset="1" stop-color="#306998"/></linearGradient><linearGradient id="paint1_linear" x1="9.948" y1="27.506" x2="7.526" y2="24.11" gradientUnits="userSpaceOnUse"><stop stop-color="#FFD43B"/><stop offset="1" stop-color="#FFE873"/></linearGradient><radialGradient id="paint2_radial" cx="0" cy="0" r="1" gradientUnits="userSpaceOnUse" gradientTransform="matrix(0 -.76116 3.34592 0 6.996 31.71)"><stop stop-color="#B8B8B8" stop-opacity=".498"/><stop offset="1" stop-color="#7F7F7F" stop-opacity="0"/></radialGradient></defs></svg>