<svg width="50" height="50" fill="none" xmlns="http://www.w3.org/2000/svg"><path d="M25.496 22.026a3.745 3.745 0 100-7.49 3.745 3.745 0 000 7.49z" fill="#61DAFB"/><path d="M25.496 32.053c2.94 2.859 5.839 4.55 8.174 4.55.765 0 1.49-.161 2.094-.523 2.094-1.209 2.86-4.229 2.134-8.537-.12-.765-.282-1.53-.483-2.336a75.87 75.87 0 002.255-.724c4.067-1.57 6.322-3.745 6.322-6.121 0-2.416-2.255-4.59-6.322-6.12a18.479 18.479 0 00-2.255-.726c.202-.805.363-1.57.483-2.335.685-4.39-.08-7.45-2.174-8.658C35.12.161 34.395 0 33.63 0c-2.295 0-5.235 1.691-8.174 4.55C22.556 1.691 19.657 0 17.322 0c-.765 0-1.49.161-2.094.523-2.094 1.208-2.86 4.229-2.134 8.537.12.765.282 1.53.483 2.336-.805.241-1.53.483-2.255.724C7.255 13.69 5 15.866 5 18.242c0 2.416 2.255 4.59 6.322 6.12.725.283 1.45.524 2.255.726-.201.805-.363 1.57-.483 2.335-.685 4.309.08 7.369 2.134 8.537.604.362 1.329.523 2.094.523 2.335.08 5.235-1.61 8.174-4.43zm-2.255-5.436c.725.04 1.49.04 2.255.04.765 0 1.53 0 2.255-.04a38.06 38.06 0 01-2.255 2.698 38.034 38.034 0 01-2.255-2.698zm-4.993-4.148c.403.685.765 1.329 1.208 1.973a43.178 43.178 0 01-3.544-.604 42.819 42.819 0 011.249-3.342 23.85 23.85 0 001.087 1.973zm-2.336-9.704a43.22 43.22 0 013.544-.604 83.323 83.323 0 00-1.208 1.973 24.68 24.68 0 00-1.087 2.013 26.93 26.93 0 01-1.249-3.382zm2.215 5.516a42.65 42.65 0 011.732-3.261c.604-1.047 1.288-2.094 1.973-3.141a55.13 55.13 0 013.664-.121c1.289 0 2.497.04 3.664.12a44.844 44.844 0 011.974 3.142 42.65 42.65 0 011.731 3.261 42.633 42.633 0 01-1.732 3.262c-.604 1.047-1.288 2.094-1.973 3.14a54.455 54.455 0 01-3.664.122c-1.288 0-2.496-.04-3.664-.121a44.844 44.844 0 01-1.973-3.141 42.633 42.633 0 01-1.732-3.262zm15.745-2.174l-1.088-2.013c-.402-.685-.765-1.33-1.208-1.973 1.249.16 2.416.362 3.544.604a38.232 38.232 0 01-1.248 3.382zm0 4.349a42.795 42.795 0 011.248 3.342 43.21 43.21 0 01-3.544.604c.403-.644.806-1.289 1.208-1.973.363-.604.725-1.289 1.088-1.973zm.926 13.973c-.322.2-.725.281-1.168.281-1.973 0-4.43-1.61-6.845-4.026 1.167-1.249 2.295-2.658 3.422-4.228a36.877 36.877 0 005.396-.846c.201.725.322 1.45.443 2.174.564 3.423.12 5.88-1.248 6.645zm2.094-21.221c4.51 1.288 7.207 3.261 7.207 5.073 0 1.57-1.852 3.141-5.113 4.39a25.86 25.86 0 01-2.094.684 42.338 42.338 0 00-1.973-5.074c.805-1.731 1.49-3.422 1.973-5.073zM33.67 1.852c.443 0 .806.08 1.168.282 1.329.765 1.812 3.181 1.248 6.644-.12.685-.282 1.41-.443 2.175a52.245 52.245 0 00-5.395-.846 37.208 37.208 0 00-3.423-4.228c2.416-2.376 4.872-4.027 6.845-4.027zm-5.919 8.094c-.725-.04-1.49-.04-2.255-.04-.765 0-1.53 0-2.255.04a38.032 38.032 0 012.255-2.698c.765.846 1.53 1.772 2.255 2.698zM16.194 2.134c.322-.201.725-.282 1.168-.282 1.973 0 4.43 1.611 6.846 4.027-1.168 1.248-2.296 2.658-3.423 4.228a36.877 36.877 0 00-5.396.846c-.201-.725-.322-1.45-.443-2.175-.564-3.422-.12-5.838 1.248-6.644zM14.1 23.355c-4.51-1.288-7.207-3.262-7.207-5.074 0-1.57 1.852-3.14 5.114-4.389a25.705 25.705 0 012.093-.684 42.33 42.33 0 001.973 5.073c-.805 1.732-1.49 3.463-1.973 5.074zm.846 4.43c.12-.685.282-1.41.443-2.175a52.52 52.52 0 005.396.846 37.2 37.2 0 003.422 4.228c-2.416 2.375-4.872 4.026-6.845 4.026-.443 0-.805-.08-1.168-.282-1.369-.764-1.812-3.22-1.248-6.644zm-1.691 16.59c.886-1.088.926-2.296.443-3.504-.484-1.208-1.49-1.772-2.738-1.812-1.49-.04-3.02 0-4.51 0h-.282v10.43h1.208v-3.947h1.892c.242 0 .443.08.564.282l2.416 3.745c.04.08.161.201.242.201h1.57a395.866 395.866 0 00-2.859-4.349c.846-.12 1.57-.402 2.054-1.046zm-5.88-.081v-3.986h.444c.926 0 1.892-.04 2.818.04 1.088.04 1.853.886 1.853 1.973 0 1.087-.886 1.933-1.973 1.973-.967.04-1.933 0-3.141 0zm15.584.524c-.644-2.82-3.221-3.544-5.194-2.658-1.53.684-2.215 2.013-2.255 3.664-.04 1.248.322 2.376 1.288 3.222 1.088.966 2.416 1.087 3.785.845.766-.16 1.45-.523 1.974-1.087a13.923 13.923 0 00-.604-.805c-1.128.966-2.376 1.288-3.745.644-.886-.443-1.33-1.53-1.41-2.336h6.242v-.523c.04-.362 0-.685-.08-.966zm-6.08.644c-.121-1.208 1.087-2.497 2.416-2.497 1.53-.04 2.496.886 2.537 2.497h-4.953zm12.362-3.504c-.604-.12-1.248-.16-1.852-.12-.967.08-1.812.523-2.497 1.248.201.282.362.564.604.886.08-.08.161-.161.242-.202.644-.604 1.409-.926 2.335-.845.725.04 1.41.282 1.61 1.007.162.563.122 1.167.162 1.771-.12 0-.161-.04-.201-.08-.967-.805-2.054-.967-3.222-.685-1.087.282-1.772 1.128-1.852 2.215-.08 1.248.483 2.174 1.57 2.617.685.282 1.45.282 2.175.121.563-.12.805-.443 1.61-.886v.524h1.128c0-1.61.04-3.584 0-5.436 0-1.168-.685-1.893-1.812-2.135zm.564 5.074c-.04.121 0 .242 0 .363 0 .845-.202 1.127-1.007 1.45-.564.2-1.168.281-1.772.08-.684-.202-1.168-.806-1.168-1.49-.04-.685.403-1.37 1.088-1.57.926-.323 1.771-.121 2.537.442.241.202.402.403.322.725zm6.281-3.986c1.047-.322 2.014-.121 2.739.765l.12.08c.282-.241.524-.483.846-.765-.12-.12-.161-.201-.242-.322-1.167-1.248-3.463-1.41-4.872-.403-1.973 1.45-1.933 4.269-.966 5.759.926 1.409 2.255 1.892 3.825 1.69.926-.12 1.691-.563 2.295-1.328a14.507 14.507 0 01-.845-.765c-.08.08-.121.12-.161.201-1.088 1.208-2.9 1.088-3.866-.201-.564-.765-.685-1.651-.524-2.537.08-1.006.604-1.812 1.651-2.174zm8.376 5.476c-.08.04-.12.08-.12.08a1.02 1.02 0 01-1.008.162c-.362-.161-.402-.483-.443-.806v-4.59c0-.08 0 .08.04-.322h1.53v-1.208h-1.61v-2.014h-1.208V42h-1.047c-.08 0-.201.08-.201.16-.04.283 0 .484 0 .887h1.288V48.2c0 .644.162 1.208.725 1.53.604.363 1.772.282 2.295-.161.081-.04.121-.201.121-.242-.12-.241-.241-.523-.362-.805z" fill="#61DAFB"/></svg>