<svg width="50" height="50" fill="none" xmlns="http://www.w3.org/2000/svg"><path d="M43.042 27.384c-1.748.01-3.262.427-4.531 1.048-.469-.922-.938-1.728-1.016-2.33-.088-.698-.195-1.125-.088-1.96.108-.834.596-2.018.596-2.115-.01-.087-.108-.514-1.114-.524-1.005-.01-1.875.194-1.972.456-.098.262-.293.864-.42 1.485-.176.912-2.012 4.143-3.057 5.842-.342-.66-.635-1.242-.694-1.708-.087-.699-.195-1.126-.087-1.96.107-.835.595-2.019.595-2.116-.01-.087-.107-.514-1.113-.524-1.006-.01-1.875.194-1.973.456-.098.262-.205.883-.42 1.485-.205.601-2.647 5.997-3.281 7.404-.323.718-.606 1.29-.811 1.679-.205.388-.01.029-.03.068l-.273.514v.01c-.137.242-.283.475-.352.475-.048 0-.146-.65.02-1.543.361-1.873 1.24-4.793 1.23-4.9 0-.049.167-.563-.566-.825-.713-.262-.967.175-1.025.175-.059 0-.108.155-.108.155s.791-3.29-1.514-3.29c-1.445 0-3.437 1.563-4.424 2.99-.625.339-1.953 1.057-3.36 1.824-.537.29-1.093.601-1.62.883l-.108-.117c-2.793-2.96-7.96-5.056-7.745-9.034.078-1.446.586-5.26 9.923-9.88 7.647-3.784 13.77-2.745 14.835-.436 1.514 3.3-3.272 9.432-11.221 10.316-3.028.34-4.62-.825-5.02-1.262-.42-.456-.479-.475-.635-.388-.254.136-.098.543 0 .786.234.611 1.21 1.698 2.871 2.242 1.455.475 5.01.737 9.308-.913 4.815-1.853 8.575-6.996 7.471-11.295C30.19 6.18 22.885 4.744 15.98 7.18c-4.112 1.456-8.566 3.726-11.77 6.705-3.808 3.533-4.414 6.618-4.16 7.9.89 4.57 7.228 7.55 9.767 9.752-.127.068-.244.136-.352.194-1.27.621-6.104 3.134-7.315 5.793-1.367 3.008.215 5.173 1.27 5.464 3.262.902 6.602-.718 8.409-3.387 1.797-2.669 1.582-6.133.752-7.715l-.03-.058.996-.582c.645-.379 1.28-.728 1.837-1.029-.313.844-.537 1.844-.655 3.3-.136 1.707.567 3.92 1.495 4.793.41.379.898.389 1.2.389 1.075 0 1.564-.884 2.1-1.941.665-1.291 1.25-2.785 1.25-2.785s-.732 4.046 1.27 4.046c.733 0 1.465-.941 1.797-1.426v.01s.02-.03.06-.098c.04-.06.08-.121.116-.184v-.02a75.83 75.83 0 001.924-3.57c1.26-2.465 2.471-5.551 2.471-5.551s.117.757.479 1.999c.215.738.683 1.543 1.045 2.329-.293.408-.47.64-.47.64l.01.01c-.234.31-.497.64-.77.97-.997 1.184-2.189 2.533-2.345 2.922-.185.456-.146.795.215 1.067.264.194.733.233 1.23.194.9-.058 1.524-.281 1.837-.417a6.378 6.378 0 001.582-.825c.977-.718 1.572-1.737 1.514-3.096-.03-.747-.274-1.484-.576-2.183.087-.126.175-.252.263-.388 1.543-2.242 2.735-4.707 2.735-4.707s.117.757.478 2c.186.63.557 1.32.89 1.998-1.446 1.175-2.355 2.533-2.667 3.426-.576 1.65-.127 2.397.723 2.572.38.077.927-.097 1.337-.272a6.077 6.077 0 001.69-.864c.977-.718 1.914-1.717 1.866-3.066-.03-.621-.196-1.233-.42-1.815 1.23-.505 2.822-.796 4.844-.553 4.346.505 5.205 3.202 5.04 4.328-.167 1.126-1.075 1.747-1.378 1.94-.303.185-.4.253-.37.389.038.204.175.194.439.155.361-.058 2.285-.922 2.363-2.998.117-2.67-2.432-5.58-6.954-5.551zM9.524 38.61c-1.436 1.563-3.457 2.155-4.317 1.65-.928-.534-.566-2.834 1.201-4.493 1.075-1.01 2.471-1.94 3.39-2.513.204-.127.517-.31.888-.534.059-.039.098-.058.098-.058.068-.04.146-.088.224-.136.655 2.368.03 4.444-1.484 6.084zm10.499-7.093c-.498 1.213-1.553 4.328-2.188 4.153-.547-.146-.879-2.504-.107-4.833.39-1.174 1.22-2.571 1.709-3.115.79-.873 1.65-1.164 1.865-.805.254.466-.967 3.843-1.28 4.6zm8.663 4.114c-.215.107-.41.184-.498.126-.069-.039.087-.184.087-.184s1.085-1.155 1.514-1.688c.244-.311.537-.67.85-1.078v.117c0 1.397-1.348 2.329-1.953 2.707zm6.68-1.514c-.156-.116-.137-.475.39-1.6.206-.447.674-1.195 1.485-1.903.098.291.156.573.147.835-.01 1.746-1.26 2.396-2.022 2.668z" fill="#CF649A"/></svg>