<svg width="50" height="50" fill="none" xmlns="http://www.w3.org/2000/svg"><path d="M15 5a2.507 2.507 0 00-2.5 2.5v35c0 1.375 1.125 2.5 2.5 2.5h25c1.375 0 2.5-1.125 2.5-2.5V15l-10-10H15z" fill="#E2E5E7"/><path d="M35 15h7.5l-10-10v7.5c0 1.375 1.125 2.5 2.5 2.5z" fill="#B0B7BD"/><path d="M42.5 22.5L35 15h7.5v7.5z" fill="#CAD1D8"/><path d="M37.5 37.5c0 .688-.563 1.25-1.25 1.25H8.75c-.688 0-1.25-.563-1.25-1.25V25c0-.688.563-1.25 1.25-1.25h27.5c.688 0 1.25.563 1.25 1.25v12.5z" fill="#F15642"/><path d="M12.666 29.584c.23-1.94 3.158-2.289 4.537-1.229.68.549-.04 1.419-.64.979-.74-.469-2.42-.689-2.63.349-.27 1.64 4.08.7 4.008 3.36-.07 2.538-3.747 2.597-5.127 1.458-.33-.27-.32-.709-.139-.98.259-.258.549-.349.889-.069.82.56 2.928.98 3.078-.44-.128-1.478-4.286-.59-3.976-3.428zm13.075 4.277l.16.189c.659.6-.2 1.58-.87.95l-.338-.269c-.52.359-1.13.53-1.94.53-1.758 0-3.768-1.211-3.768-3.67 0-2.459 1.999-3.707 3.769-3.707 1.857 0 3.677 1.248 3.677 3.707 0 .95-.241 1.651-.69 2.27zm-.601-2.27c0-1.588-1.249-2.397-2.387-2.397-1.23 0-2.44.807-2.44 2.397 0 1.212 1.03 2.36 2.44 2.36.358 0 .708-.09 1.058-.18l-1.139-1.05c-.53-.64.31-1.55.98-.96l1.13 1.129c.248-.349.358-.779.358-1.299zm2.764-2.907c0-.33.28-.61.63-.61.32 0 .59.281.59.61v5.007h2.719c.978 0 1 1.31 0 1.31h-3.308c-.35 0-.63-.25-.63-.61v-5.707h-.001z" fill="#fff"/><path d="M36.25 38.75H12.5V40h23.75c.688 0 1.25-.563 1.25-1.25V37.5c0 .688-.563 1.25-1.25 1.25z" fill="#CAD1D8"/></svg>