<svg width="50" height="50" fill="none" xmlns="http://www.w3.org/2000/svg"><path d="M11.667 19.074l6.963 19.111c-4.89-2.37-8.297-7.407-8.297-13.185 0-2.074.445-4.148 1.334-5.926zm23.259 5.185c0-1.777-.593-3.11-1.185-4-.741-1.185-1.482-2.222-1.482-3.407 0-1.333 1.037-2.667 2.519-2.667h.148c-2.667-2.37-6.074-3.852-9.926-3.852-5.037 0-9.63 2.667-12.148 6.519h.889c1.481 0 3.852-.148 3.852-.148.74 0 .889 1.185.148 1.185 0 0-.741.148-1.63.148l5.333 15.852 3.26-9.63-2.223-6.222c-.74 0-1.481-.148-1.481-.148-.74 0-.74-1.185.148-1.185 0 0 2.37.148 3.852.148 1.482 0 3.852-.148 3.852-.148.74 0 .889 1.185.148 1.185 0 0-.74.148-1.63.148l4.89 15.852L33.74 29c.593-2.074 1.186-3.555 1.186-4.74zm-9.63 2.074l-4.444 12.741c1.333.445 2.666.593 4.148.593 1.63 0 3.407-.297 4.889-.89l-.148-.147-4.445-12.297zm12.593-8.296c0 .445.148 1.037.148 1.482 0 1.481-.296 3.11-1.185 5.185l-4.445 12.889c4.297-2.519 7.26-7.26 7.26-12.593 0-2.518-.741-4.889-1.778-6.963z" fill="#fff"/><path d="M25 5C14.037 5 5 14.037 5 25s9.037 20 20 20 20-9.037 20-20S35.963 5 25 5zm0 37.63c-9.63 0-17.63-7.852-17.63-17.63 0-9.63 7.852-17.63 17.63-17.63 9.778 0 17.63 8 17.63 17.63 0 9.63-8 17.63-17.63 17.63z" fill="#fff"/></svg>