<svg width="35" height="35" viewBox="0 0 35 35" fill="none" xmlns="http://www.w3.org/2000/svg">
<g clip-path="url(#clip0_115_35)">
<path d="M17.5 35C27.165 35 35 27.165 35 17.5C35 7.83502 27.165 0 17.5 0C7.83502 0 0 7.83502 0 17.5C0 27.165 7.83502 35 17.5 35Z" fill="#1D93D2"/>
<g opacity="0.2">
<path d="M28.4375 24.0625C28.4375 25.2656 27.4531 26.25 26.25 26.25H8.75C7.54687 26.25 6.5625 25.2656 6.5625 24.0625V13.125C6.5625 11.9219 7.54687 10.9375 8.75 10.9375H26.25C27.4531 10.9375 28.4375 11.9219 28.4375 13.125V24.0625Z" fill="black"/>
</g>
<path d="M28.4375 22.9688C28.4375 24.1719 27.4531 25.1562 26.25 25.1562H8.75C7.54687 25.1562 6.5625 24.1719 6.5625 22.9688V12.0312C6.5625 10.8281 7.54687 9.84375 8.75 9.84375H26.25C27.4531 9.84375 28.4375 10.8281 28.4375 12.0312V22.9688Z" fill="#F4F4F4"/>
<g opacity="0.2">
<path d="M19.4141 16.5156C18.375 15.3672 16.625 15.3672 15.5859 16.5156L7.10937 23.625C7 23.7344 6.94531 23.8437 6.83594 23.9531C7.21875 24.6641 7.92969 25.1562 8.69531 25.1562H26.1953C27.0156 25.1562 27.6719 24.6641 28.0547 23.9531C28 23.8437 27.8906 23.7344 27.7812 23.625L19.4141 16.5156Z" fill="black"/>
</g>
<path d="M19.4141 17.5C18.375 16.4609 16.625 16.4609 15.5859 17.5L7.10937 23.7891C7 23.8984 6.94531 23.9531 6.83594 24.0625C7.21875 24.7188 7.92969 25.1016 8.69531 25.1016H26.1953C27.0156 25.1016 27.6719 24.6641 28.0547 24.0625C28 23.9531 27.8906 23.8984 27.7812 23.7891L19.4141 17.5Z" fill="#F4F4F4"/>
<g opacity="0.2">
<path d="M6.89062 11.0469C7.27344 10.3359 7.98437 9.84375 8.75 9.84375H26.25C27.0703 9.84375 27.7266 10.3359 28.1094 11.0469C28.0547 11.1563 27.9453 11.2656 27.8359 11.375L19.4141 18.4844C18.375 19.6328 16.625 19.6328 15.5859 18.4844L6.89062 11.0469Z" fill="black"/>
</g>
<path d="M15.5859 17.5C16.625 18.5391 18.375 18.5391 19.4141 17.5L27.8906 11.2109C28 11.1016 28.0547 11.0469 28.1641 10.9375C27.7813 10.2812 27.0703 9.89844 26.3047 9.89844H8.75C7.92969 9.89844 7.27344 10.3359 6.89062 10.9375C6.94531 11.0469 7.05469 11.1016 7.16406 11.2109L15.5859 17.5Z" fill="white"/>
</g>
<defs>
<clipPath id="clip0_115_35">
<rect width="35" height="35" fill="white"/>
</clipPath>
</defs>
</svg>
