<svg width="35" height="35" viewBox="0 0 35 35" fill="none" xmlns="http://www.w3.org/2000/svg">
<g clip-path="url(#clip0_115_34)">
<path d="M17.5 35C27.165 35 35 27.165 35 17.5C35 7.83502 27.165 0 17.5 0C7.83502 0 0 7.83502 0 17.5C0 27.165 7.83502 35 17.5 35Z" fill="url(#paint0_linear_115_34)"/>
<path d="M11.8459 18.7794L13.9221 24.5261C13.9221 24.5261 14.1817 25.0638 14.4597 25.0638C14.7376 25.0638 18.8719 20.7628 18.8719 20.7628L23.4693 11.8831L11.92 17.296L11.8459 18.7794Z" fill="#C8DAEA"/>
<path d="M14.5988 20.2529L14.2002 24.4888C14.2002 24.4888 14.0334 25.7867 15.331 24.4888C16.6287 23.1909 17.8707 22.19 17.8707 22.19" fill="#A9C6D8"/>
<path d="M11.8834 18.9843L7.61253 17.5928C7.61253 17.5928 7.10211 17.3857 7.26646 16.9161C7.3003 16.8193 7.36855 16.7369 7.57271 16.5953C8.51903 15.9357 25.0882 9.98026 25.0882 9.98026C25.0882 9.98026 25.556 9.82261 25.8319 9.92747C25.9002 9.9486 25.9616 9.98748 26.0099 10.0401C26.0582 10.0928 26.0916 10.1573 26.1068 10.2272C26.1366 10.3505 26.1491 10.4774 26.1439 10.6041C26.1425 10.7138 26.1293 10.8154 26.1192 10.9748C26.0183 12.6031 22.9984 24.7551 22.9984 24.7551C22.9984 24.7551 22.8177 25.4662 22.1703 25.4905C22.0112 25.4956 21.8528 25.4687 21.7043 25.4113C21.5559 25.3538 21.4205 25.2671 21.3063 25.1563C20.0359 24.0635 15.6452 21.1127 14.6749 20.4638C14.6531 20.4489 14.6346 20.4294 14.6209 20.4068C14.6072 20.3842 14.5984 20.3588 14.5953 20.3325C14.5818 20.2641 14.6561 20.1794 14.6561 20.1794C14.6561 20.1794 22.3016 13.3836 22.505 12.6702C22.5208 12.6149 22.4613 12.5876 22.3814 12.6118C21.8736 12.7986 13.0708 18.3577 12.0992 18.9712C12.0293 18.9923 11.9554 18.9968 11.8834 18.9843Z" fill="white"/>
</g>
<defs>
<linearGradient id="paint0_linear_115_34" x1="17.5" y1="35" x2="17.5" y2="0" gradientUnits="userSpaceOnUse">
<stop stop-color="#1D93D2"/>
<stop offset="1" stop-color="#38B0E3"/>
</linearGradient>
<clipPath id="clip0_115_34">
<rect width="35" height="35" fill="white"/>
</clipPath>
</defs>
</svg>
