<svg xmlns="http://www.w3.org/2000/svg" width="532.167" height="532.167"><g fill="#fff"><path d="M21.19 307.825L241.369 448.5a45.846 45.846 0 0024.712 7.222 45.84 45.84 0 0024.712-7.222l220.179-140.675c21.359-13.647 27.62-42.032 13.966-63.391-13.642-21.365-42.032-27.607-63.391-13.966l-195.465 124.88L70.621 230.463c-21.353-13.642-49.744-7.394-63.391 13.966-13.654 21.364-7.399 49.743 13.96 63.396z"/><path d="M21.19 161.031l220.179 140.674a45.846 45.846 0 0024.712 7.222 45.84 45.84 0 0024.712-7.222l220.179-140.674c21.359-13.647 27.62-42.032 13.966-63.392-13.653-21.364-42.032-27.606-63.391-13.966L266.082 208.559 70.621 83.668C49.268 70.026 20.877 76.275 7.23 97.634c-13.647 21.359-7.399 49.743 13.96 63.397z"/></g></svg>